<?xml version="1.0" encoding="iso-8859-1"?>
<!-- Generator: Adobe Illustrator 19.0.0, SVG Export Plug-In . SVG Version: 6.00 Build 0)  -->
<svg version="1.1" id="Capa_1" xmlns="http://www.w3.org/2000/svg" xmlns:xlink="http://www.w3.org/1999/xlink" x="0px" y="0px"
	 viewBox="0 0 512 512" style="enable-background:new 0 0 512 512;" xml:space="preserve">
<g>
	<path style="fill:#E82934;" d="M478.572,389.967L256.996,266.824c-0.318-0.175-0.657-0.257-0.996-0.257
		c-0.349,0-0.698,0.082-1.006,0.257L33.428,389.967c-1.879,1.038-3.902-1.14-2.721-2.928L254.275,49.423
		c0.411-0.616,1.068-0.924,1.725-0.924c0.647,0,1.304,0.308,1.715,0.924l223.578,337.616
		C482.474,388.827,480.451,391.005,478.572,389.967z"/>
	<path style="fill:#E82934;" d="M502.436,463.496H9.564c-2.197,0-2.865-2.958-0.893-3.904l246.436-117.893
		c0.277-0.134,0.585-0.206,0.894-0.206c0.298,0,0.596,0.072,0.883,0.206L503.33,459.592
		C505.301,460.537,504.633,463.496,502.436,463.496z"/>
</g>
<g>
	<path style="fill:#C7232C;" d="M478.572,389.967L256.996,266.824c-0.318-0.175-0.657-0.257-0.996-0.257l-1.725-217.144L256,48.499
		c0.647,0,1.304,0.308,1.715,0.924l223.578,337.616C482.474,388.827,480.451,391.005,478.572,389.967z"/>
	<path style="fill:#C7232C;" d="M502.436,463.496H256V341.493c0.298,0,0.596,0.072,0.883,0.206l246.446,117.893
		C505.301,460.537,504.633,463.496,502.436,463.496z"/>
</g>
<path d="M32.422,397.728c1.584,0,3.183-0.396,4.648-1.209l218.924-121.668l28.789,15.999c3.622,2.012,8.186,0.706,10.199-2.912
	c2.012-3.621,0.708-8.188-2.912-10.199l-31.428-17.466c-2.908-1.617-6.381-1.619-9.291-0.002L49.288,372.567l32.268-48.729
	c2.287-3.453,1.342-8.107-2.112-10.394s-8.107-1.342-10.393,2.112l-44.594,67.343c-2.437,3.682-2.043,8.517,0.955,11.757
	C27.275,396.669,29.829,397.728,32.422,397.728z"/>
<path d="M89.692,297.97c3.453,2.287,8.107,1.342,10.393-2.112L255.996,60.413L462.71,372.567l-143.302-79.636
	c-3.623-2.014-8.187-0.708-10.199,2.912c-2.012,3.621-0.708,8.188,2.912,10.199l162.81,90.477c1.465,0.813,3.062,1.208,4.646,1.208
	c2.594,0,5.149-1.06,7.013-3.075c2.998-3.242,3.388-8.077,0.95-11.755L263.963,45.277c-1.776-2.678-4.753-4.278-7.968-4.278
	c-0.001,0-0.002,0-0.003,0c-3.214,0.001-6.192,1.602-7.965,4.28L87.579,287.576C85.292,291.03,86.237,295.683,89.692,297.97z"/>
<path d="M506.564,452.83L260.12,334.928c-2.621-1.254-5.625-1.254-8.25,0L5.435,452.83c-4.052,1.938-6.187,6.351-5.193,10.73
	c0.994,4.38,4.826,7.44,9.319,7.44h85.764c4.143,0,7.5-3.357,7.5-7.5s-3.357-7.5-7.5-7.5H33.568l222.427-106.416l222.436,106.415
	H128.334c-4.143,0-7.5,3.357-7.5,7.5s3.357,7.5,7.5,7.5h374.105c4.493,0,8.325-3.06,9.319-7.44
	C512.752,459.181,510.616,454.768,506.564,452.83z"/>
<g>
</g>
<g>
</g>
<g>
</g>
<g>
</g>
<g>
</g>
<g>
</g>
<g>
</g>
<g>
</g>
<g>
</g>
<g>
</g>
<g>
</g>
<g>
</g>
<g>
</g>
<g>
</g>
<g>
</g>
</svg>
